<?xml version="1.0" encoding="utf-8"?>
<svg version="1.1" xmlns="http://www.w3.org/2000/svg" xmlns:xlink="http://www.w3.org/1999/xlink" x="0px" y="0px"
	 viewBox="0 0 841.9 595.3">
	<circle fill="#fff" cx="428.5" cy="297.7" r="208"/>
<g fill="#AAA">
	<polygon points="272.9,199.1 274.8,196.2 263,190.7 	"/>
	<path d="M490.9,484.9c-0.1-0.3-0.2-0.8-0.4-1.4l-4.4-13.6c-0.3-0.8-0.5-1.4-0.7-1.8c-0.2-0.4-0.5-0.8-0.8-1s-0.8-0.4-1.3-0.4
		s-1.1,0.1-1.9,0.4l-1,0.3l7,21.9l1.1-0.3c0.5-0.2,1-0.4,1.3-0.5c0.4-0.2,0.6-0.4,0.8-0.7c0.2-0.3,0.3-0.5,0.4-0.8
		c0.1-0.2,0.1-0.6,0.1-1C491.1,485.6,491,485.3,490.9,484.9z"/>
	<path d="M288.3,410.2c0.2-0.2,0.5-0.5,0.7-0.8c0.2-0.3,0.4-0.6,0.5-0.9c0.1-0.3,0.1-0.6,0-0.9c-0.1-0.3-0.3-0.7-0.5-1
		c-0.3-0.3-0.6-0.6-0.9-0.8c-0.3-0.2-0.6-0.2-0.9-0.2c-0.3,0-0.6,0.1-1,0.2c-0.4,0.2-0.7,0.3-0.9,0.5c-0.3,0.2-0.6,0.4-0.9,0.7
		l-12.6,9.8c-0.4,0.3-0.7,0.5-0.9,0.7c-0.2,0.2-0.5,0.5-0.7,0.8c-0.2,0.3-0.4,0.6-0.5,0.9c-0.1,0.3-0.1,0.6,0,0.9s0.2,0.7,0.5,1
		c0.3,0.3,0.6,0.6,0.9,0.8c0.3,0.2,0.6,0.2,0.9,0.2c0.3,0,0.6-0.1,1-0.2c0.4-0.2,0.7-0.3,0.9-0.5c0.3-0.2,0.6-0.4,0.9-0.7l12.6-9.8
		C287.8,410.6,288.1,410.4,288.3,410.2z"/>
	<path d="M407.8,487l-1.4-0.2l-1.1,9.9l1.5,0.2c1.6,0.2,2.7-0.1,3.5-0.8s1.2-1.9,1.3-3.5c0.2-1.9,0-3.2-0.6-4.1
		C410.5,487.7,409.4,487.2,407.8,487z"/>
	<path d="M303.7,429.9c1.1-1.1,1.7-2.1,1.8-3c0.1-0.9-0.3-1.9-1.3-2.8l-1.6-1.6l-6.5,6.6l1.3,1.3c1.1,1,2.1,1.5,3.1,1.4
		C301.6,431.6,302.6,431,303.7,429.9z"/>
	<polygon points="374.8,484.2 376.8,471.3 371.4,483.2 	"/>
	<path d="M408.9,473.8l-1.2-0.1l-0.9,8.3l1.4,0.1c1.6,0.2,2.7-0.1,3.3-0.7c0.6-0.6,1-1.7,1.2-3.3C413,475.6,411.7,474.1,408.9,473.8
		z"/>
	<path d="M515.2,475.8c-0.1-0.3-0.3-0.7-0.5-1.1l-6.8-14.4c-0.2-0.4-0.4-0.7-0.5-1c-0.2-0.3-0.4-0.6-0.6-0.9
		c-0.2-0.3-0.5-0.5-0.8-0.6c-0.3-0.1-0.6-0.2-0.9-0.2c-0.4,0-0.7,0.1-1.1,0.3c-0.4,0.2-0.7,0.4-0.9,0.7c-0.2,0.3-0.4,0.5-0.4,0.8
		c-0.1,0.3-0.1,0.6,0,1s0.2,0.7,0.3,1c0.1,0.3,0.3,0.6,0.5,1.1l6.8,14.4c0.2,0.4,0.4,0.8,0.5,1c0.2,0.3,0.4,0.6,0.6,0.9
		s0.5,0.5,0.8,0.7c0.3,0.1,0.6,0.2,0.9,0.2c0.4,0,0.7-0.1,1.1-0.3c0.4-0.2,0.7-0.4,0.9-0.7c0.2-0.3,0.4-0.6,0.4-0.8
		c0.1-0.3,0.1-0.6,0-1C515.4,476.4,515.3,476.1,515.2,475.8z"/>
	<polygon points="533.2,130.6 524.9,140.6 527.9,142.5 	"/>
	<path d="M611.1,234.8c0.9,0.3,2.1,0.2,3.6-0.3c1.4-0.5,2.4-1.2,2.9-1.9c0.5-0.8,0.5-1.8,0.1-3.1l-0.8-2.1l-8.7,3.1l0.6,1.8
		C609.4,233.6,610.2,234.5,611.1,234.8z"/>
	<path d="M494.3,116.1c0.6-0.5,1.2-1.5,1.7-3c0.2-0.5,0.3-1,0.4-1.4c0.1-0.4,0.1-0.8,0.2-1.2c0-0.4-0.1-0.8-0.2-1.1
		c-0.1-0.3-0.4-0.6-0.7-0.9c-0.3-0.3-0.8-0.5-1.3-0.7l-2.2-0.8l-2.9,8.3l2.2,0.8C492.7,116.6,493.7,116.6,494.3,116.1z"/>
	<path d="M428.5,86.3c-116.7,0-211.3,94.6-211.3,211.3S311.8,509,428.5,509c116.7,0,211.3-94.6,211.3-211.3S545.3,86.3,428.5,86.3z
		 M634.2,285l-15.6,7.5l15.9-0.7l0.3,6.1l-33.2,1.4l-0.2-5l16.9-7.6l-17.2,0.7l-0.3-6.3l33.2-1.4L634.2,285z M633,272.4l-32.9,4.7
		l-1-7.3l32.9-4.7L633,272.4z M631.1,258.9l-4.9,1.2l-1.8-7.4l-8,2l1.4,5.6l-5,1.2l-1.4-5.6l-9.6,2.4l1.8,7.5l-4.8,1.2l-3.6-14.6
		l32.3-7.9L631.1,258.9z M441,465.2c-4.1,0.3-8.2,0.5-12.4,0.5c-13.3,0-26.2-1.5-38.5-4.4c20-59.8,57.6-103.9,72-121.7
		c1.8-2.3,2.2-4.6,2.5-6.5c0-16.5-32.3-57-41-63c7.9,5.5,9.7,22.7,5,33.1c0,0-24,59.1-28.4,69.4c-5.3,12.2-18.7,41.7-12.6,88.1
		c-72.9-18.4-126.9-84.4-126.9-163c0-63.3,35-118.4,86.7-147.1c2,28.4,15.3,48.8,30.9,65.9c0,0,93.2,89.4,89.1,116.3
		c22-31.1,8.7-76.1,8.7-76.1c-7.9-27.7,6-39.3,11.5-51.1c0.9-1.7,17.9-25.9,14.5-59.1c56,27.3,94.6,84.7,94.6,151.2
		c0,88.6-68.5,161.1-155.5,167.6c4.1-64.2,17.3-109.4,22.9-126.5c-6.4,8.1-19.3,26.9-32.2,49.8C429.6,402.3,425.9,425.1,441,465.2z
		 M355.4,146.3c22.1-10.7,46.9-16.7,73.2-16.7c25.4,0,49.5,5.6,71,15.7c-6.4,14.7-29.6,64.6-57.9,81.4
		C395.4,201.6,367.8,165.7,355.4,146.3z M622.2,227.3c0.5,1.3,0.8,2.5,1,3.6c0.2,1.1,0.3,2.1,0.2,3.2c-0.1,1-0.3,1.9-0.7,2.7
		c-0.4,0.8-1,1.5-1.9,2.2c-0.9,0.7-1.9,1.2-3.2,1.7c-2.1,0.7-3.8,1-5.2,0.9c-1.4-0.1-2.8-0.8-4-2l-13.6,9.7l-2.6-7.2l12.8-8.4
		l-0.7-1.9l-14,5l-2.5-6.9l31.3-11.2L622.2,227.3z M616.5,212.8l-4.5,2.2l-3.4-6.8l-7.4,3.7l2.6,5.2l-4.6,2.3l-2.6-5.2l-8.9,4.4
		l3.4,6.9l-4.4,2.2l-6.7-13.4l29.7-14.9L616.5,212.8z M599.5,182.6l-16.9,15.2l20.6-9.4l3.6,5.6l-31.2,13l-4.2-6.5l24.6-23.1
		L599.5,182.6z M569.1,177.4l3.4-2.7l6.7,8.3l-3.4,2.7L569.1,177.4z M571.1,148.7l10.5,10.8l-2.9,2.8l-23.1,11l5.8,6l-3.6,3.5
		l-10.8-11l3.2-3.1l22.7-10.8l-5.4-5.5L571.1,148.7z M556,135.8l-4.8,16.7l10.1-12.4l4.7,3.9l-21,25.7l-3.8-3.1l5.6-17.7l-10.9,13.3
		l-4.9-4l21-25.7L556,135.8z M541.4,125.3l-12.3,31.5l-5.7-3.6l2.8-6.6L522,144l-4.7,5.4l-5.9-3.7l23-24.8L541.4,125.3z
		 M509.7,108.1l15.8,7.6l-2.4,4.9l-4.6-2.2l-12,25.1l-6.6-3.2l12-25.1l-4.6-2.2L509.7,108.1z M497.4,103.5c2.8,1,4.6,2.5,5.4,4.5
		c0.8,2,0.7,4.5-0.3,7.5c-0.4,1.2-0.9,2.2-1.4,3.1s-1.1,1.5-1.7,2.1c-0.6,0.5-1.3,0.9-2,1.2c-0.7,0.3-1.4,0.4-2.2,0.4
		c-0.8,0-1.6-0.1-2.4-0.2c-0.8-0.1-1.6-0.4-2.5-0.7l-2.7-0.9l-4.6,13.4l-6.9-2.4l10.8-31.4L497.4,103.5z M471.8,96.2
		c2.9,0.6,4.9,1.8,6,3.7c1.1,1.9,1.3,4.4,0.7,7.5c-0.2,1.2-0.6,2.3-1,3.2c-0.4,0.9-0.9,1.7-1.5,2.3s-1.2,1-1.8,1.4s-1.4,0.6-2.1,0.7
		s-1.6,0.1-2.4,0.1c-0.8,0-1.6-0.2-2.6-0.4l-2.8-0.6l-2.8,13.9l-7.2-1.5l6.7-32.6L471.8,96.2z M439.7,91.8l14.9,1.3l-0.4,5l-7.6-0.7
		l-0.7,8.2l5.8,0.5l-0.4,5.1l-5.8-0.5l-0.9,9.9l7.7,0.7l-0.4,5l-15-1.3L439.7,91.8z M434.2,91.5l0.1,5.4l-5.1,0.1l0.5,27.8l-7.4,0.1
		l-0.4-27.8l-5.1,0.1l-0.1-5.4L434.2,91.5z M396.9,95.8c1.5-1.7,3.6-2.7,6.5-3.1c1-0.1,1.9-0.1,2.7,0c0.8,0.1,1.5,0.3,2.1,0.6
		c0.6,0.3,1.1,0.6,1.6,1.1c0.5,0.5,0.9,1,1.2,1.4c0.3,0.5,0.6,1.1,0.8,1.7s0.4,1.2,0.6,1.8c0.1,0.5,0.2,1.1,0.4,1.7l-6.2,1.6
		c-0.1-0.6-0.2-1-0.2-1.4c-0.1-0.4-0.2-0.7-0.3-1.1c-0.1-0.4-0.2-0.7-0.3-1c-0.1-0.2-0.3-0.5-0.5-0.7c-0.2-0.2-0.4-0.3-0.6-0.4
		c-0.2-0.1-0.5-0.1-0.8,0c-0.6,0.1-1.1,0.4-1.4,1c-0.3,0.6-0.4,1.2-0.3,1.8c0.1,0.6,0.2,1.2,0.4,1.7c0.2,0.5,0.5,1,1,1.4
		s0.8,0.7,1.1,1c0.3,0.2,0.7,0.5,1.3,1l3.1,2.1c0.9,0.6,1.6,1.2,2.2,1.7s1.3,1.2,1.9,1.9s1.1,1.6,1.5,2.5c0.4,0.9,0.6,1.9,0.8,3
		c0.3,2.4-0.2,4.5-1.6,6.2c-1.4,1.8-3.4,2.8-6,3.2c-3.1,0.4-5.6-0.1-7.3-1.6s-2.9-4-3.5-7.7l6.1-1.7c0.3,2.1,0.7,3.5,1.3,4.4
		c0.6,0.9,1.4,1.3,2.3,1.1c1.2-0.2,1.7-1,1.5-2.6c-0.1-0.9-0.4-1.7-0.8-2.4s-0.9-1.3-1.4-1.8c-0.5-0.5-1.3-1-2.2-1.6l-3.2-2.2
		c-0.8-0.5-1.4-1-2-1.4c-0.5-0.4-1.1-1-1.6-1.6s-1-1.4-1.3-2.2c-0.3-0.8-0.5-1.7-0.7-2.8C394.9,99.8,395.4,97.6,396.9,95.8z
		 M360.4,104.9c0.8-1.7,2.2-2.9,4.3-3.6c2.1-0.6,3.9-0.6,5.7,0.2s2.9,2.2,3.6,4.3c0.2,0.6,0.3,1.2,0.4,1.8c0.1,0.6,0.1,1.2,0,1.8
		c-0.1,0.6-0.2,1.1-0.3,1.6c-0.1,0.5-0.3,1-0.5,1.7c-0.3,0.6-0.5,1.1-0.6,1.5c-0.1,0.3-0.4,0.8-0.7,1.5c-0.3,0.7-0.5,1.1-0.6,1.3
		l5.8,5.7c0.1-0.6,0.1-1.6-0.1-3c-0.2-1.4-0.5-2.7-0.8-3.9l4.4-1.4c0.7,2.1,1.1,4,1.1,5.7c0.1,1.7,0,3.4-0.3,5.1
		c0.4,0.2,0.8,0.4,1.4,0.5c0.6,0.1,1.1,0.1,1.6,0l1.5,4.7c-0.4,0.3-0.8,0.4-1.1,0.5c-0.3,0.1-0.6,0.1-0.8,0.2c-0.3,0-0.6,0-0.9,0
		s-0.6-0.1-0.8-0.1c-0.2,0-0.5-0.1-0.9-0.3c-0.4-0.2-0.6-0.2-0.8-0.3s-0.4-0.2-0.8-0.4c-0.4-0.2-0.7-0.3-0.7-0.3
		c-0.4,1.1-1.1,2-2,2.8c-0.9,0.8-1.9,1.4-3.1,1.8c-2.1,0.7-4.1,0.5-5.9-0.4c-1.8-1-3-2.5-3.7-4.7c-0.6-1.8-0.7-3.7-0.4-5.8
		c0.3-2,0.9-3.9,1.7-5.5c-0.4-0.4-0.9-1-1.7-1.7c-0.8-0.7-1.3-1.3-1.8-1.8c-0.4-0.4-0.9-1-1.3-1.7c-0.5-0.7-0.8-1.4-1-2.1
		C359.5,108.5,359.6,106.6,360.4,104.9z M346.9,126.9l2,3.8l-9.5,4.9l-2-3.8L346.9,126.9z M313.6,126.6l7.4,11.3l-2.8-14.4l6-3.9
		l3.1,15.9l15.4,11.7l-6.3,4.1l-12.2-9.7l0,1.4l7.6,11.5l-6.1,4l-18.3-27.8L313.6,126.6z M301.6,135.3l21,25.8l-5.7,4.6l-21-25.8
		L301.6,135.3z M291.9,143.2l3.8,3.9l-3.6,3.5l19.3,20l-5.3,5.1l-19.3-20l-3.7,3.5l-3.8-3.9L291.9,143.2z M270.3,165.1
		c0.6-0.8,1.3-1.4,2-1.9c0.7-0.5,1.3-0.8,2-1c0.6-0.2,1.3-0.3,1.9-0.3c0.7,0,1.3,0.1,1.9,0.2c0.6,0.1,1.2,0.4,1.8,0.7
		c0.6,0.3,1.2,0.6,1.6,0.9c0.5,0.3,0.9,0.6,1.4,1l-3.4,5.4c-0.4-0.3-0.8-0.6-1.1-0.9c-0.3-0.2-0.6-0.4-1-0.7
		c-0.4-0.2-0.7-0.4-0.9-0.5c-0.3-0.1-0.5-0.1-0.8-0.2c-0.3,0-0.5,0-0.7,0.1c-0.2,0.1-0.4,0.3-0.6,0.6c-0.4,0.5-0.5,1.1-0.3,1.7
		c0.2,0.6,0.5,1.1,1,1.5c0.5,0.4,1,0.7,1.5,0.9c0.5,0.2,1,0.3,1.7,0.3c0.6,0,1.1,0,1.4,0c0.3,0,0.9-0.1,1.6-0.2l3.7-0.6
		c1-0.2,2-0.2,2.8-0.3c0.8,0,1.7,0,2.7,0.2c0.9,0.1,1.9,0.4,2.8,0.8c0.9,0.4,1.8,1,2.6,1.7c1.8,1.5,2.9,3.4,3.1,5.7
		c0.2,2.2-0.5,4.4-2.2,6.4c-2,2.4-4.2,3.7-6.4,3.8s-4.9-1-7.8-3.2l3.3-5.5c1.6,1.3,2.9,2.1,4,2.3c1,0.2,1.8,0,2.5-0.7
		c0.8-1,0.6-1.9-0.7-3c-0.7-0.6-1.4-1-2.2-1.2c-0.8-0.2-1.5-0.3-2.2-0.3c-0.7,0-1.6,0.1-2.7,0.3l-3.8,0.6c-0.9,0.2-1.7,0.2-2.4,0.3
		c-0.7,0-1.4,0-2.3-0.1c-0.8-0.1-1.6-0.3-2.4-0.7c-0.8-0.4-1.6-0.9-2.4-1.6c-2.1-1.8-3.2-3.8-3.3-6
		C267.6,169.6,268.4,167.3,270.3,165.1z M257.8,182.4l31.3,12.8l-3.7,5.7l-6.5-2.9l-2.6,4.1l5.3,4.8l-3.8,5.8l-24.5-23.3
		L257.8,182.4z M241.1,212.1l17.3,0.7l-14.4-6.9l2.6-5.5l30,14.4l-2.2,4.5l-18.5-1.3l15.5,7.4l-2.7,5.7l-30-14.4L241.1,212.1z
		 M230.8,239.7l19.7,2.3l-17.4-9.6l2.3-7.2l31.9,9.4l-1.6,5l-21.2-6.1l19.9,10.3l-1.4,4.4l-22.4-2.7l21,7.1l-1.6,5.1l-31.6-10.5
		L230.8,239.7z M224.9,266.3l10.9-1.4l-9.9-4.6l1.1-6.6l18.3,9.4l13.4,2.3l-1.2,6.9l-13.4-2.3l-20.4,3L224.9,266.3z M244.5,299.2
		l-11-0.5c-1.5-0.1-2.8-0.2-3.9-0.5c-1.2-0.3-2.2-0.6-3.2-1.2c-1-0.5-1.7-1.2-2.3-2c-0.6-0.8-1.1-1.8-1.4-2.9
		c-0.3-1.2-0.4-2.5-0.4-4c0.1-1.4,0.3-2.7,0.6-3.8c0.4-1.1,0.8-2,1.4-2.7c0.6-0.7,1.3-1.3,2.1-1.7s1.8-0.7,2.7-0.9
		c1-0.2,2.1-0.2,3.3-0.2l2.1,0.1l-0.3,7.2l-2.7-0.1c-0.5,0-0.9,0-1.2,0c-0.3,0-0.7,0-1.1,0.1c-0.4,0.1-0.7,0.2-0.9,0.3
		c-0.2,0.2-0.4,0.4-0.6,0.7c-0.2,0.3-0.3,0.7-0.3,1.1c0,0.5,0,0.9,0.2,1.2c0.2,0.3,0.4,0.6,0.6,0.8s0.6,0.3,1,0.5
		c0.4,0.1,0.8,0.2,1.1,0.2c0.3,0,0.8,0.1,1.2,0.1l15.2,0.7c1.3,0.1,2.4-0.1,3.2-0.5c0.8-0.4,1.2-1.1,1.2-2.1c0.1-1.9-1.3-3-4.3-3.1
		l-3.7-0.2l-0.1,3l-4.4-0.2l0.4-9.6l17.3,0.8l-0.2,4.9l-2.8,0.3c2.1,1.1,3.1,2.9,3,5.5c-0.1,1.7-0.4,3.1-1,4.3
		c-0.6,1.2-1.4,2.1-2.5,2.7c-1.1,0.6-2.3,1.1-3.7,1.4C247.8,299.2,246.3,299.3,244.5,299.2z M249.8,399.3l28.4-17.3l7.5,12.3
		l-4.3,2.6l-3.7-6l-7.1,4.4l3.2,5.2l-4.4,2.7l-3.2-5.2l-12.6,7.7L249.8,399.3z M266.1,424.3c-1.1-1.5-1.9-2.8-2.3-4.2
		c-0.4-1.3-0.5-2.6-0.2-3.8c0.3-1.2,0.8-2.3,1.7-3.4c0.8-1.1,1.9-2.2,3.3-3.3l9.7-7.5c1.4-1.1,2.7-1.9,4-2.4
		c1.2-0.5,2.5-0.8,3.7-0.8c1.2,0,2.4,0.4,3.6,1.1c1.2,0.7,2.3,1.8,3.5,3.3c2.2,2.8,3.1,5.4,2.6,7.8c-0.5,2.4-2.2,4.6-5,6.9l-9.7,7.5
		c-2.8,2.2-5.5,3.3-7.9,3.2C270.6,428.6,268.3,427.2,266.1,424.3z M286.9,446.7l7.8-13.2l-1.5-1.4l-10.4,10.6l-5.2-5.1l23.3-23.7
		l6.5,6.4c1,1,1.8,1.9,2.5,2.8c0.7,0.9,1.2,1.8,1.6,2.7c0.4,1,0.6,1.9,0.6,2.8c0,0.9-0.3,1.8-0.7,2.8c-0.5,1-1.2,2-2.2,2.9
		c-1.5,1.6-3,2.6-4.3,3.1c-1.3,0.5-2.8,0.5-4.4,0l-8,14.7L286.9,446.7z M299.8,458l17-22l-4-3.1l3.3-4.3l13.9,10.7l-3.3,4.3l-4-3.1
		l-17,22L299.8,458z M333.3,473.6c-0.9,0.9-2,1.6-3.1,2.1c-1.1,0.4-2.4,0.5-3.7,0.3c-1.3-0.3-2.8-0.9-4.4-1.9
		c-1.3-0.8-2.3-1.6-3.1-2.4c-0.8-0.9-1.4-1.7-1.7-2.6c-0.3-0.9-0.5-1.8-0.4-2.8c0.1-1,0.3-2.1,0.7-3.1s1-2.2,1.8-3.5l11.8-19.5
		l6.2,3.7L325,464.3c-0.3,0.4-0.5,0.8-0.7,1.2c-0.2,0.3-0.3,0.7-0.5,1.1c-0.1,0.4-0.2,0.8-0.2,1.1c0,0.3,0.1,0.6,0.3,1
		c0.2,0.3,0.5,0.6,0.9,0.8s0.8,0.4,1.1,0.4c0.4,0,0.7-0.1,1-0.2c0.3-0.1,0.6-0.4,0.9-0.7c0.3-0.3,0.6-0.6,0.8-0.9s0.5-0.7,0.7-1.1
		l12.3-20.4l6.2,3.8l-11.8,19.5C335.2,471.4,334.2,472.6,333.3,473.6z M349.5,487.5l0.6-18.5l-6.9,15.8l-5.7-2.5l13.4-30.4l4.7,2.1
		l-0.2,17.4l6.4-14.6l5.6,2.4l-13.4,30.4L349.5,487.5z M379.8,497.6l-6.5-1.9l0.9-7.1l-4.7-1.4l-3.1,6.4l-6.7-2l15.5-30.1l8,2.4
		L379.8,497.6z M419.2,478.4c0,0.1,0,0.2,0,0.3c-0.5,3.8-2.3,5.9-5.6,6.1c1.9,0.5,3.2,1.4,4.1,2.9c0.9,1.4,1.2,3.4,0.9,5.7
		c0,0.1,0,0.2,0,0.2c-0.4,3.2-1.5,5.5-3.3,6.9c-1.9,1.4-4.5,1.9-7.7,1.6l-10.2-1.1l3.5-33.1l8.6,0.9c1.2,0.1,2.3,0.3,3.3,0.5
		c1,0.2,1.9,0.6,2.8,1.1c0.9,0.5,1.6,1.1,2.2,1.7c0.6,0.7,1,1.6,1.2,2.7C419.3,476,419.3,477.1,419.2,478.4z M431.1,503.3l-7.3,0
		L424,470l7.3,0L431.1,503.3z M438,503.1l-2.6-33.1l14.9-1.2l0.4,5l-7.6,0.6l0.6,8.2l5.8-0.5l0.4,5.1l-5.8,0.5l0.8,9.9l7.7-0.6
		l0.4,5L438,503.1z M473.2,496.5c-1.3,1.9-3.2,3-5.8,3.5c-3.1,0.6-5.6,0.2-7.4-1.2c-1.8-1.4-3.1-3.8-3.9-7.4l6-2.1
		c0.4,2,0.9,3.5,1.6,4.3c0.6,0.8,1.4,1.2,2.4,1c1.2-0.2,1.7-1.1,1.4-2.7c-0.2-0.9-0.5-1.7-0.9-2.3s-1-1.2-1.5-1.7
		c-0.6-0.4-1.3-0.9-2.3-1.5l-3.4-2c-0.8-0.5-1.5-0.9-2-1.3c-0.6-0.4-1.1-0.9-1.7-1.5s-1-1.3-1.4-2.1c-0.4-0.8-0.6-1.7-0.8-2.7
		c-0.5-2.7-0.1-5,1.3-6.8c1.3-1.8,3.4-3,6.3-3.5c1-0.2,1.9-0.2,2.7-0.2c0.8,0.1,1.6,0.2,2.2,0.4c0.6,0.2,1.2,0.6,1.7,1
		c0.5,0.4,0.9,0.9,1.3,1.4c0.3,0.5,0.7,1,0.9,1.6c0.3,0.6,0.5,1.2,0.7,1.7c0.2,0.5,0.3,1.1,0.5,1.7l-6.1,2c-0.1-0.5-0.2-1-0.3-1.4
		c-0.1-0.4-0.2-0.7-0.3-1.1s-0.3-0.7-0.4-0.9c-0.1-0.2-0.3-0.4-0.5-0.6c-0.2-0.2-0.4-0.3-0.7-0.4c-0.2,0-0.5,0-0.8,0
		c-0.6,0.1-1.1,0.5-1.3,1.1c-0.2,0.6-0.3,1.2-0.2,1.8c0.1,0.6,0.3,1.2,0.5,1.6c0.2,0.5,0.6,0.9,1.1,1.3c0.5,0.4,0.8,0.7,1.1,0.9
		s0.7,0.5,1.4,0.9l3.2,1.9c0.9,0.5,1.7,1.1,2.3,1.6c0.7,0.5,1.3,1.1,2,1.8c0.6,0.7,1.2,1.5,1.6,2.4c0.4,0.9,0.8,1.9,1,3
		C474.9,492.6,474.4,494.7,473.2,496.5z M497.6,488.7c-0.5,1.1-1.4,2.1-2.7,2.9c-1.2,0.8-2.9,1.5-4.9,2.2l-8.1,2.6l-10.1-31.7l8-2.6
		c2.1-0.7,3.9-1,5.3-1.1c1.5-0.1,2.8,0.2,3.9,0.8c1.1,0.6,2,1.4,2.7,2.5c0.7,1.1,1.4,2.6,2,4.4l3.7,11.4c0.6,1.8,0.9,3.4,1,4.8
		C498.4,486.4,498.2,487.6,497.6,488.7z M522.1,478.2c-0.6,2.3-2.6,4.3-5.8,5.8c-1.7,0.8-3.2,1.2-4.6,1.4s-2.6-0.1-3.7-0.7
		c-1.1-0.5-2.1-1.3-3-2.4c-0.9-1-1.7-2.4-2.4-4l-5.2-11.1c-0.8-1.6-1.3-3.1-1.5-4.4c-0.2-1.3-0.2-2.6,0.1-3.8
		c0.3-1.2,0.9-2.3,1.9-3.3s2.3-1.9,4-2.7c3.3-1.5,6-1.8,8.2-0.8c2.2,1,4.1,3.1,5.6,6.4l5.2,11.1
		C522.3,473.1,522.8,475.9,522.1,478.2z M542.7,468.7l-11.1-10.5l-1.7,1.1l8.1,12.5l-6.2,4l-18-27.9l7.6-4.9
		c1.2-0.8,2.3-1.4,3.3-1.8c1-0.5,2-0.8,3-0.9c1-0.2,2-0.2,2.8,0.1c0.9,0.2,1.7,0.7,2.6,1.3c0.8,0.7,1.6,1.6,2.4,2.8
		c1.2,1.8,1.9,3.5,2.1,4.9c0.2,1.4-0.1,2.9-1,4.3l12.6,11.1L542.7,468.7z M554.2,460.5l-21.1-25.7l11.1-9.1l3.2,3.9l-5.5,4.5
		l5.3,6.5l4.7-3.9l3.3,4l-4.7,3.9l9.4,11.4L554.2,460.5z M577.8,439.2L553,417.1l9.9-11.2l3.7,3.3l-5.1,5.7l6.1,5.5l3.9-4.3l3.8,3.4
		l-3.9,4.3l7.4,6.6l5.1-5.7l3.7,3.3L577.8,439.2z M590.5,424.4l-5-3.8l3.8-5.1l5,3.8L590.5,424.4z M600.4,410.6L569.1,398l3.3-5.3
		l20.9,8.9l-17.2-14.8l3.6-5.6l24.9,22.9L600.4,410.6z M609.6,395.1l-5.6-2.9l2.9-5.6l5.6,2.9L609.6,395.1z"/>
	<path d="M371,129.4c0.7,0.5,1.3,0.7,1.9,0.5c1.2-0.4,2-1.2,2.4-2.3c-3.5-3.6-5.4-5.7-5.8-6.2c-0.5,2.1-0.5,3.9,0,5.6
		C369.8,128,370.3,128.8,371,129.4z"/>
	<path d="M366.2,110.5c0.4,0.7,0.9,1.5,1.5,2.3c0.6,0.8,0.9,1.3,1,1.4c0.6-3.2,0.6-5.6,0.1-7.1c-0.2-0.6-0.5-1-1-1.2
		c-0.5-0.2-0.9-0.3-1.5-0.1c-0.5,0.2-0.9,0.5-1.1,1c-0.2,0.5-0.2,1.1,0,1.8C365.4,109.1,365.7,109.8,366.2,110.5z"/>
	<path d="M470.4,109.1c0.6-0.6,1-1.7,1.3-3.2c0.1-0.6,0.2-1,0.2-1.4c0-0.4,0-0.8,0-1.2c0-0.4-0.2-0.8-0.3-1
		c-0.2-0.3-0.5-0.5-0.8-0.8c-0.4-0.2-0.9-0.4-1.4-0.5l-2.3-0.5l-1.8,8.6l2.3,0.5C468.9,109.9,469.8,109.7,470.4,109.1z"/>
	<path d="M527.4,446.1c-0.9-0.3-1.9-0.1-3,0.6l-1.9,1.2l5,7.7l1.6-1c1.3-0.8,1.9-1.7,2-2.7s-0.3-2.1-1.1-3.4
		C529.2,447.2,528.3,446.4,527.4,446.1z"/>
	<path d="M481.5,163.2c2.6-5,4.9-9.7,6.7-13.6c-18.7-7.6-38.9-11.6-59.7-11.6c-21.1,0-41.5,4.1-60.4,11.9c2.5,3.5,5.3,7.3,8.5,11.3
		c0.3,0.4,0.7,0.8,1,1.2c16-6.1,33.2-9.3,50.9-9.3C447,153.1,464.9,156.6,481.5,163.2z"/>
	<path d="M408,438.7c-2.1,4.8-4.1,9.6-5.9,14.4c8.7,1.5,17.5,2.2,26.5,2.2c-1.6-5.2-2.9-10.2-4-15.2
		C418.9,440,413.4,439.5,408,438.7z"/>
	<path d="M426.2,165.3c-9.1,5.3-12.2,18.4-7,29.3c5.2,10.9,16.8,15.4,25.9,10.1c9.1-5.3,12.2-18.4,7-29.3
		C446.9,164.6,435.3,160,426.2,165.3z"/>
	<path d="M370.8,428.2c-16.1-7.1-30.9-17.2-43.8-30c-27.1-27.1-42-63.2-42-101.5c0-38.4,14.9-74.4,42-101.5c3.9-3.9,8-7.5,12.2-10.9
		c12.6,25,30.1,33.9,30.1,33.9c-13.4-12.6-20.7-27.2-24.6-38c0,0,0.1-0.1,0.1-0.1c-1.8-4.8-3.2-9.9-4.3-15.4
		c-8.6,5.7-16.6,12.4-24.1,19.8c-30,30-46.5,69.8-46.5,112.2c0,42.4,16.5,82.2,46.5,112.2c17.5,17.5,38.4,30.4,61.2,38.1
		c-0.1-2.6-0.2-5.2-0.2-7.8c0-6.3,0.3-30.9,7.1-51.5C384.4,387.7,376.3,402.8,370.8,428.2z"/>
	<path d="M454.6,417c-2.5,14.6-3.9,34.6-3.9,34.6c-0.1,0.7-0.1,1.5-0.2,2.2c34-4.7,65.5-20.3,90.2-45c30-30,46.5-69.8,46.5-112.2
		c0-42.4-16.5-82.2-46.5-112.2c-9.1-9.1-19.1-17-29.9-23.5c0,0-2.4,29.6-15.7,46c0,0,7.2-5.4,18-26.3c6,4.4,11.6,9.2,16.9,14.5
		c27.1,27.1,42.1,63.2,42.1,101.5c0,38.3-14.9,74.4-42.1,101.5c-20.7,20.7-46.7,34.3-74.9,39.6C454,428.1,454.6,417,454.6,417z"/>
</g>
</svg>
